HIERARCHY
ROOT hip
{
  OFFSET 0 0 0
  CHANNELS 6 Xposition Yposition Zposition Zrotation Yrotation Xrotation
  JOINT abdomen
  {
    OFFSET 0 20.6881 -0.73152
    CHANNELS 3 Zrotation Xrotation Yrotation
    JOINT chest
    {
      OFFSET 0 11.7043 -0.48768
      CHANNELS 3 Zrotation Xrotation Yrotation
      JOINT neck
      {
        OFFSET 0 22.1894 -2.19456
        CHANNELS 3 Zrotation Xrotation Yrotation
        JOINT head
        {
          OFFSET -0.24384 7.07133 1.2192
          CHANNELS 3 Zrotation Xrotation Yrotation
          JOINT leftEye
          {
            OFFSET 4.14528 8.04674 8.04672
            CHANNELS 3 Zrotation Xrotation Yrotation
            End Site
            {
              OFFSET 1 0 0
            }
          }
          JOINT rightEye
          {
            OFFSET -3.6576 8.04674 8.04672
            CHANNELS 3 Zrotation Xrotation Yrotation
            End Site
            {
              OFFSET 1 0 0
            }
          }
        }
      }
      JOINT rCollar
      {
        OFFSET -2.68224 19.2634 -4.8768
        CHANNELS 3 Zrotation Xrotation Yrotation
        JOINT rShldr
        {
          OFFSET -8.77824 -1.95073 1.46304
          CHANNELS 3 Zrotation Xrotation Yrotation
          JOINT rForeArm
          {
            OFFSET -28.1742 -1.7115 0.48768
            CHANNELS 3 Zrotation Xrotation Yrotation
            JOINT rHand
            {
              OFFSET -22.5879 0.773209 7.07136
              CHANNELS 3 Zrotation Xrotation Yrotation
              JOINT rThumb1
              {
                OFFSET -1.2192 -0.487915 3.41376
                CHANNELS 3 Zrotation Xrotation Yrotation
                JOINT rThumb2
                {
                  OFFSET -3.37035 -0.52449 3.41376
                  CHANNELS 3 Zrotation Xrotation Yrotation
                  End Site
                  {
                    OFFSET -1.78271 -1.18214 1.43049
                  }
                }
              }
              JOINT rIndex1
              {
                OFFSET -7.75947 0.938293 5.60832
                CHANNELS 3 Zrotation Xrotation Yrotation
                JOINT rIndex2
                {
                  OFFSET -2.54057 -0.884171 1.56538
                  CHANNELS 3 Zrotation Xrotation Yrotation
                  End Site
                  {
                    OFFSET -1.62519 -0.234802 1.16502
                  }
                }
              }
              JOINT rMid1
              {
                OFFSET -8.24714 1.18213 3.41376
                CHANNELS 3 Zrotation Xrotation Yrotation
                JOINT rMid2
                {
                  OFFSET -3.10165 -0.590103 1.0647
                  CHANNELS 3 Zrotation Xrotation Yrotation
                  End Site
                  {
                    OFFSET -2.48547 -0.328903 0.83742
                  }
                }
              }
              JOINT rRing1
              {
                OFFSET -8.82822 0.546677 1.51678
                CHANNELS 3 Zrotation Xrotation Yrotation
                JOINT rRing2
                {
                  OFFSET -2.60934 -0.819778 -0.0198488
                  CHANNELS 3 Zrotation Xrotation Yrotation
                  End Site
                  {
                    OFFSET -2.33842 -0.294052 0.168128
                  }
                }
              }
              JOINT rPinky1
              {
                OFFSET -8.27202 -0.0477905 -0.4584
                CHANNELS 3 Zrotation Xrotation Yrotation
                JOINT rPinky2
                {
                  OFFSET -1.82734 -0.647385 -0.700984
                  CHANNELS 3 Zrotation Xrotation Yrotation
                  End Site
                  {
                    OFFSET -1.69225 -0.51767 -0.607171
                  }
                }
              }
            }
          }
        }
      }
      JOINT lCollar
      {
        OFFSET 2.68224 19.2634 -4.8768
        CHANNELS 3 Zrotation Xrotation Yrotation
        JOINT lShldr
        {
          OFFSET 8.77824 -1.95073 1.46304
          CHANNELS 3 Zrotation Xrotation Yrotation
          JOINT lForeArm
          {
            OFFSET 28.1742 -1.7115 0.48768
            CHANNELS 3 Zrotation Xrotation Yrotation
            JOINT lHand
            {
              OFFSET 22.5879 0.773209 7.07136
              CHANNELS 3 Zrotation Xrotation Yrotation
              JOINT lThumb1
              {
                OFFSET 1.2192 -0.487915 3.41376
                CHANNELS 3 Zrotation Xrotation Yrotation
                JOINT lThumb2
                {
                  OFFSET 3.37035 -0.52449 3.41376
                  CHANNELS 3 Zrotation Xrotation Yrotation
                  End Site
                  {
                    OFFSET 1.78271 -1.18214 1.43049
                  }
                }
              }
              JOINT lIndex1
              {
                OFFSET 7.75947 0.938293 5.60832
                CHANNELS 3 Zrotation Xrotation Yrotation
                JOINT lIndex2
                {
                  OFFSET 2.54057 -0.884171 1.56538
                  CHANNELS 3 Zrotation Xrotation Yrotation
                  End Site
                  {
                    OFFSET 1.62519 -0.234802 1.16502
                  }
                }
              }
              JOINT lMid1
              {
                OFFSET 8.24714 1.18213 3.41376
                CHANNELS 3 Zrotation Xrotation Yrotation
                JOINT lMid2
                {
                  OFFSET 3.10165 -0.590103 1.0647
                  CHANNELS 3 Zrotation Xrotation Yrotation
                  End Site
                  {
                    OFFSET 2.48547 -0.328903 0.83742
                  }
                }
              }
              JOINT lRing1
              {
                OFFSET 8.82822 0.546677 1.51678
                CHANNELS 3 Zrotation Xrotation Yrotation
                JOINT lRing2
                {
                  OFFSET 2.60934 -0.819778 -0.0198488
                  CHANNELS 3 Zrotation Xrotation Yrotation
                  End Site
                  {
                    OFFSET 2.33842 -0.294052 0.168128
                  }
                }
              }
              JOINT lPinky1
              {
                OFFSET 8.27202 -0.0477905 -0.4584
                CHANNELS 3 Zrotation Xrotation Yrotation
                JOINT lPinky2
                {
                  OFFSET 1.82734 -0.647385 -0.700984
                  CHANNELS 3 Zrotation Xrotation Yrotation
                  End Site
                  {
                    OFFSET 1.69225 -0.51767 -0.607171
                  }
                }
              }
            }
          }
        }
      }
    }
  }
  JOINT rButtock
  {
    OFFSET -8.77824 4.35084 1.2192
    CHANNELS 3 Zrotation Xrotation Yrotation
    JOINT rThigh
    {
      OFFSET 0 -1.70687 -2.19456
      CHANNELS 3 Zrotation Xrotation Yrotation
      JOINT rShin
      {
        OFFSET 0 -36.8199 0.73152
        CHANNELS 3 Zrotation Xrotation Yrotation
        JOINT rFoot
        {
          OFFSET 0.73152 -45.1104 -5.12064
          CHANNELS 3 Zrotation Xrotation Yrotation
          End Site
          {
            OFFSET -1.1221 -3.69964 12.103
          }
        }
      }
    }
  }
  JOINT lButtock
  {
    OFFSET 8.77824 4.35084 1.2192
    CHANNELS 3 Zrotation Xrotation Yrotation
    JOINT lThigh
    {
      OFFSET 0 -1.70687 -2.19456
      CHANNELS 3 Zrotation Xrotation Yrotation
      JOINT lShin
      {
        OFFSET 0 -36.8199 0.73152
        CHANNELS 3 Zrotation Xrotation Yrotation
        JOINT lFoot
        {
          OFFSET -0.73152 -45.1104 -5.12064
          CHANNELS 3 Zrotation Xrotation Yrotation
          End Site
          {
            OFFSET 1.1221 -3.69964 12.103
          }
        }
      }
    }
  }
}
MOTION
Frames:	7
Frame Time:	0.03333
0.0 0.0 0.0 0.0 0.0 0.0 0.0 0.0 0.0 0.0 0.0 0.0 0.0 0.0 0.0 0.0 0.0 0.0 0.0 0.0 0.0 0.0 0.0 0.0 0.0 0.0 0.0 0.0 0.0 0.0 0.0 0.0 0.0 0.0 0.0 0.0 0.0 0.0 0.0 0.0 0.0 0.0 0.0 0.0 0.0 0.0 0.0 0.0 0.0 0.0 0.0 0.0 0.0 0.0 0.0 0.0 0.0 0.0 0.0 0.0 0.0 0.0 0.0 0.0 0.0 0.0 0.0 0.0 0.0 0.0 0.0 0.0 0.0 0.0 0.0 0.0 0.0 0.0 0.0 0.0 0.0 0.0 0.0 0.0 0.0 0.0 0.0 0.0 0.0 0.0 0.0 0.0 0.0 0.0 0.0 0.0 0.0 0.0 0.0 0.0 0.0 0.0 0.0 0.0 0.0 0.0 0.0 0.0 0.0 0.0 0.0 0.0 0.0 0.0 0.0 0.0 0.0 0.0 0.0 0.0 0.0 0.0 0.0 0.0 0.0 0.0 0.0 0.0 0.0 0.0 0.0 0.0
-0.12090000000000001 55.62669999999999 0.0271 -177.712898 68.166618 -174.995192 -1.741545 9.319206 -138.643108 1.394579 8.83889 133.693211 -15.956742 29.620762 -75.004062 41.715776 -1.212377 32.909936 -5.1e-05 0.0 -0.000224 0.000397 0.0 0.002272 -157.48042 -18.954655 164.881854 68.10313 66.399985 -84.897437 14.044955 35.579929 78.501808 -15.099094 56.632986 7.756964 179.675734 -17.774546 89.216229 143.685242 -53.50966 102.598868 -158.892733 -31.030945 122.642057 -156.661006 -8.854235 119.364621 -165.85107 -23.180573 145.025018 -168.853571 -21.408734 143.91968 -145.119386 0.410688 -179.258737 11.5331 20.362739 -6.64656 -144.7058 10.602293 -141.405907 -156.345322 39.222412 -146.208224 -1.260968 -8.338018 1.75989 102.090234 2.777442 165.220047 -174.601505 -55.437465 81.453257 16.647056 -44.075691 11.46089 10.659227 10.068014 -2.549721 138.487374 -41.947452 -112.836479 32.060072 33.527895 -24.010106 0.721736 11.647234 -0.803247 3.514193 9.626079 -2.143344 134.40839 48.238193 -123.116554 145.123112 1.426692 179.575791 156.864648 59.32997 -173.333171 33.481124 -43.247728 32.410162 150.030921 23.474222 145.760597 -179.996146 75.750873 -0.001497 144.32169 8.199743 100.050008 69.844309 -15.540978 -83.786832 101.542566 -33.187467 -10.44366 -0.009828 0.000458 -0.009106 39.235458 -23.79751 -136.997882 -72.615898 -80.907628 -169.180485 145.855141 -58.087669 51.566994
-0.17229999999999998 55.56870000000001 0.0472 -177.751274 68.212921 -175.07567 -1.384973 9.732288 -127.382719 3.569678 8.378855 122.29845 6.399971 26.963042 82.340977 -39.696272 8.386937 -125.359997 0.001992 0.0 0.002306 0.001535 -0.0 -0.000185 -108.958579 64.727658 112.39312 -98.591578 50.510926 72.742909 -2.520408 -65.534731 -123.063311 148.606863 -43.954205 134.357139 -166.582358 -4.254941 89.766691 -54.413813 -10.393213 14.497919 4.517938 -7.671152 -2.338437 -159.118958 -11.579873 110.288391 -43.236197 55.063952 36.59654 -15.250799 39.07541 12.372788 -0.01942 -1.573113 -0.494972 1.006149 -78.717994 -19.670778 1.504035 4.0656 1.379619 -6.12081 -19.425022 -7.608949 155.208845 -1.628986 -161.433161 -119.678984 -24.272654 -160.93965 169.85234 -6.463424 -38.839624 144.105575 27.494102 -130.295701 167.337193 -5.011071 -89.823223 160.948854 -2.823302 -82.834941 -44.245958 -63.219768 -3.615879 161.066197 -22.257465 -113.760599 12.357119 28.191019 -8.753416 9.398662 30.233543 -7.648976 145.117271 -0.194077 179.068084 147.173136 -45.701001 169.609785 54.770517 -50.462549 53.443093 156.360913 45.849724 148.486274 -0.000241 0.0001 -1e-06 -57.804839 -49.827209 -146.705862 -79.124776 11.122805 -150.283152 -123.961432 -26.024732 148.023372 -0.000241 0.0001 -1e-06 37.33585 -23.565249 118.409224 88.300911 5.524537 13.803013 -90.411243 58.732802 -19.694568
-0.21810000000000002 55.5142 0.07150000000000001 -177.669603 68.253327 -175.049011 -0.990508 12.180217 -67.425865 11.121896 -0.060385 62.702274 -12.90989 23.269879 -36.078482 26.805923 -23.518908 -1.719856 -0.002995 0.0 -0.002256 -0.002692 -0.0 0.000312 2.416576 -67.8197 -15.329111 60.115449 43.674108 -17.27618 -179.908321 28.416394 62.613889 153.21066 -38.136106 138.309958 -30.502173 24.895057 11.276915 52.25017 -48.683782 2.539058 9.200236 -16.173395 -4.23599 175.693112 -42.634716 102.749094 -162.622917 -12.798408 144.071316 -177.989784 -44.637334 141.912496 0.004584 1.006204 0.317463 -154.469218 11.246024 170.33095 7.784943 24.28348 6.884006 -4.926561 -16.341348 -6.243591 159.219257 -49.481977 -170.734952 135.171405 -60.522033 90.288585 -176.613243 86.183088 -45.798078 137.41204 34.574629 -123.074839 -174.216855 -22.729599 -88.10315 104.208458 20.521786 -45.285969 -1.519769 -2.503605 0.83579 -99.888227 -61.574948 -45.927083 5.027347 13.372861 -3.172265 -2.782389 1.476555 -0.177442 145.106867 3.8529 -179.660355 -11.727832 34.498269 5.074309 -92.380564 88.3504 52.052861 8.529765 -20.927898 9.67449 179.950298 75.749464 0.039959 146.443615 8.430019 -85.987389 -71.355196 5.628407 59.022809 93.72277 7.493161 -13.946744 179.943818 75.749049 0.042574 -132.943283 37.543315 -60.233481 -86.763914 45.129947 -171.072345 175.235521 -59.925669 85.992079
-0.2657 55.4641 0.0991 -177.481998 68.263337 -174.914417 -0.992979 10.153149 -119.514938 5.06534 7.805706 114.379342 -15.636457 32.612131 -92.104491 43.91629 9.81828 45.696761 -0.001086 0.0 -0.002047 0.004583 -0.0 -0.002873 4.255342 -51.354301 -10.086724 -118.796917 -25.253723 -175.877999 -21.079999 -16.04787 -124.185301 125.441591 -59.253254 113.217284 167.419639 -28.349241 86.076564 -149.791569 11.48077 85.553436 -156.657548 -26.996689 122.397303 -151.620211 2.55716 118.229026 -124.104035 50.77283 113.844642 -176.504214 -42.219427 142.550454 -141.221004 -33.415918 -167.068546 -151.221881 67.113602 169.339843 0.309576 0.807947 0.285059 -15.551408 -33.204316 -16.545069 158.625944 -32.323308 -167.335682 -128.308195 19.544862 170.856095 168.950966 -37.350412 -42.901026 143.978956 27.633422 -130.174363 -3.20762 -3.190624 0.405421 81.305612 26.033337 -73.563015 163.6967 -39.187414 -122.558917 2.919295 28.029738 1.615484 165.227823 -21.180141 -144.88614 -45.030914 -70.353158 -19.385516 -0.00313 1.944883 -0.61071 153.066109 23.527661 -168.327667 6.590836 -14.675424 6.196799 141.118752 -5.504092 138.706464 0.001363 -0.000763 0.001702 -58.894869 -49.880209 179.761837 -71.933162 -32.076776 41.260496 -14.037841 -27.930636 66.8614 0.006396 0.000509 0.003234 37.359158 -23.29395 97.171024 84.955494 26.127184 -8.797693 -88.771529 34.108434 -18.272165
-0.3225 55.42 0.12940000000000002 -177.250234 68.236332 -174.712618 -3.451355 9.043022 167.813485 -8.283483 5.438974 -172.031339 -11.807684 37.676869 -128.534792 39.717944 32.212798 73.626639 -0.000757 0.0 -0.000268 0.004911 -0.0 -0.001097 0.409519 -2.532446 -0.554124 5.677592 46.450945 54.868948 41.071163 80.953379 -155.146218 155.015639 -35.455326 139.795922 -177.806853 -15.383368 89.562926 -0.206371 -57.511683 4.570381 -65.11967 43.115507 53.231336 -1.875764 12.289081 -1.059243 0.029564 -0.083686 -0.014926 -158.3007 9.630595 141.219204 0.004801 0.813098 0.255333 9.806681 5.902063 0.69918 38.279791 85.2833 0.675706 1.871878 1.339254 -0.629506 158.557368 -31.296352 -167.146444 50.465545 28.912768 10.177924 -179.575822 7.335523 74.044764 16.648559 -44.369518 11.565731 161.116053 1.174763 -89.071738 137.151677 4.763544 -67.189611 -57.852235 -69.67697 -13.621648 8.276371 33.30138 -7.309389 -6.561185 -20.50587 2.725111 159.495272 6.559647 -141.770714 145.113097 -0.430589 178.992181 154.169451 -12.110663 177.565152 2.577048 -6.309763 2.398727 6.398527 -20.294802 8.063322 179.992698 75.749518 0.006983 146.25555 8.639309 -76.364861 -79.18936 13.778739 -22.167888 -4.675233 60.359355 100.142648 -0.014655 0.000126 -0.012701 37.78466 -22.546675 50.715033 52.012819 84.664814 -161.215054 -121.670299 56.667915 -143.445617
-0.3967 55.378400000000006 0.1687 -176.984637 68.190472 -174.444377 -3.164774 9.069677 169.689188 -7.986252 5.762534 -173.93688 -2.417453 39.657127 -178.605825 9.055283 50.931661 128.825284 0.000195 -0.0 -0.001829 0.000987 0.0 0.003219 -153.077955 9.890513 158.703045 -35.562106 -20.022961 -12.993369 176.557581 10.390917 -96.599116 -13.809953 54.820148 7.026116 -152.089326 9.67512 86.85704 -1.066457 -42.737766 17.678967 -151.988558 -18.343613 121.334215 73.650805 -67.501871 22.835009 3.036436 -9.221962 -1.505682 178.63355 -51.598793 140.578304 -145.116631 -0.064865 -179.108429 -147.965158 80.592783 162.224551 -146.761765 17.257145 -143.212433 -162.564718 55.988961 -146.671127 157.435941 -18.529785 -164.802519 -128.425299 -40.064036 -179.179308 149.611839 0.565741 -34.072495 155.579236 7.50352 -143.324495 -178.116524 -19.224395 -88.947343 -0.057019 -59.8397 -2.219552 -13.718205 -24.573594 5.450437 98.453847 44.503705 -79.758288 -14.753052 -44.511593 2.78268 -2.647022 1.273556 -0.213696 -0.00361 0.618221 -0.194877 -6.640338 30.934927 -4.945636 131.82767 -19.217756 129.370482 -8.818526 16.638757 -2.468144 -0.003657 0.000606 -0.003399 -57.202806 -48.928187 -101.261555 -70.637041 42.53232 -4.746441 151.079494 -2.401158 -74.567228 -179.994559 75.75015 -0.004646 -135.25774 37.271122 43.641822 83.749705 44.50977 -178.998872 -143.274834 67.149042 -121.738338
